<svg width="200" height="200" viewBox="0 0 200 200" fill="none" xmlns="http://www.w3.org/2000/svg">
  <defs>
    <linearGradient id="grad5" x1="0%" y1="0%" x2="100%" y2="100%">
      <stop offset="0%" style="stop-color:#43e97b;stop-opacity:1" />
      <stop offset="100%" style="stop-color:#38f9d7;stop-opacity:1" />
    </linearGradient>
  </defs>
  <rect width="200" height="200" rx="20" fill="url(#grad5)"/>
  <g transform="translate(50, 50)">
    <!-- Dashboard with charts -->
    <rect x="20" y="20" width="60" height="50" rx="5" fill="white" opacity="0.9"/>
    
    <!-- Line chart -->
    <path d="M25 60 L35 50 L45 45 L55 40 L65 35 L75 30" stroke="url(#grad5)" stroke-width="3" fill="none" opacity="0.8"/>
    <circle cx="25" cy="60" r="2" fill="url(#grad5)" opacity="0.8"/>
    <circle cx="35" cy="50" r="2" fill="url(#grad5)" opacity="0.8"/>
    <circle cx="45" cy="45" r="2" fill="url(#grad5)" opacity="0.8"/>
    <circle cx="55" cy="40" r="2" fill="url(#grad5)" opacity="0.8"/>
    <circle cx="65" cy="35" r="2" fill="url(#grad5)" opacity="0.8"/>
    <circle cx="75" cy="30" r="2" fill="url(#grad5)" opacity="0.8"/>
    
    <!-- Bar chart -->
    <rect x="25" y="80" width="8" height="20" fill="url(#grad5)" opacity="0.3"/>
    <rect x="35" y="75" width="8" height="25" fill="url(#grad5)" opacity="0.3"/>
    <rect x="45" y="70" width="8" height="30" fill="url(#grad5)" opacity="0.3"/>
    <rect x="55" y="65" width="8" height="35" fill="url(#grad5)" opacity="0.3"/>
    <rect x="65" y="60" width="8" height="40" fill="url(#grad5)" opacity="0.3"/>
    
    <!-- Monitoring indicators -->
    <circle cx="30" cy="30" r="3" fill="#43e97b" opacity="0.8"/>
    <circle cx="50" cy="30" r="3" fill="#38f9d7" opacity="0.8"/>
    <circle cx="70" cy="30" r="3" fill="#43e97b" opacity="0.8"/>
  </g>
</svg>
