<svg width="1935" height="425" viewBox="0 0 1935 425" fill="none" xmlns="http://www.w3.org/2000/svg">
<path d="M254.695 5.99854C239.258 1.99951 219.535 0 195.523 0C130.922 0 82.0391 17.1392 48.8789 51.4175C16.293 85.6958 0 131.972 0 190.245V425H127.777V320.503H285.566V214.24H127.777V191.959C127.777 179.961 128.922 168.821 131.207 158.537C134.066 148.254 138.352 139.399 144.07 131.972C150.359 124.545 158.648 118.832 168.938 114.832C179.801 110.262 192.949 107.977 208.387 107.977C219.82 107.977 230.969 108.834 241.832 110.548C253.266 112.262 263.555 115.118 272.703 119.117L295 18.853C284.137 14.2827 270.703 9.99805 254.695 5.99854Z" fill="#0057AD"/>
<path d="M467.426 425H341V20.3052L467.426 0V425Z" fill="#0057AD"/>
<path d="M1322.82 425H1183.31C1207.47 394.373 1226.65 372.152 1254.33 340.082L1254.39 340.01L1254.5 339.878L1254.59 339.789C1259.53 334.062 1264.75 328.02 1270.31 321.56H1067V214.23H1380.73C1380.73 214.23 1395.54 212.115 1411.76 220.709C1415.29 222.506 1418.5 224.654 1421.37 227.109L1422.02 227.646C1438.91 241.873 1439.56 265.831 1439.56 265.831V295.76C1421.47 315.715 1407.16 331.003 1394.26 344.784C1371.46 369.131 1353.07 388.775 1326.04 421.15C1324.95 422.455 1323.88 423.737 1322.82 425Z" fill="#0057AD"/>
<path d="M1866.9 425C1890.4 358.455 1913.09 288.122 1935 214H1797.5C1791.55 237.257 1784.7 262.602 1776.96 290.034C1769.82 316.869 1762.08 344.301 1753.75 372.329C1748.73 390.138 1743.58 407.694 1738.3 425H1866.9Z" fill="#0057AD"/>
<path d="M1669.35 425H1534.59C1510 360.786 1486.62 290.453 1464.46 214H1605.54C1611.49 237.257 1618.33 262.602 1626.07 290.034C1634.4 316.869 1643.04 344.301 1651.96 372.329C1657.76 390.138 1663.55 407.694 1669.35 425Z" fill="#0057AD"/>
<path d="M963.902 425H835.305C840.578 407.694 845.727 390.138 850.75 372.329C859.082 344.301 866.82 316.869 873.965 290.034C881.703 262.602 888.547 237.257 894.5 214H1032C1010.09 288.122 987.398 358.455 963.902 425Z" fill="#0057AD"/>
<path d="M766.352 425H631.594C606.996 360.786 583.621 290.453 561.465 214H702.535C708.488 237.257 715.332 262.602 723.07 290.034C731.406 316.869 740.035 344.301 748.965 372.329C754.762 390.138 760.555 407.694 766.352 425Z" fill="#0057AD"/>
<path d="M1069 212.23L1382.73 212.23L1113.89 268.475L1088.09 217.39L1069 212.23Z" fill="#FAD925"/>
<path fill-rule="evenodd" clip-rule="evenodd" d="M1256.74 337.604C1230.01 368.569 1211.23 390.323 1188.36 419.15H1328.04C1355.09 386.755 1373.49 367.107 1396.3 342.738C1409.19 328.969 1423.49 313.694 1441.56 293.76V263.831C1441.56 263.831 1440.91 239.873 1424.02 225.646C1404.41 209.135 1382.73 212.23 1382.73 212.23L1113.89 268.475L1088.09 217.39C1086.03 213.778 1083.45 212.23 1078.29 212.23L1069 212.23V319.56H1272.31C1266.8 325.951 1261.64 331.932 1256.74 337.604Z" fill="#0057AD"/>
</svg>
