<svg width="361" height="438" viewBox="0 0 361 438" fill="none" xmlns="http://www.w3.org/2000/svg">
<path d="M0 1H305C342 1 361 24.5 361 57V78H0V1Z" fill="#FAD925"/>
<path d="M360.5 438H0V363C41.5 300 54.9656 280.459 93.5 230C131.966 179.631 153.5 155.5 197 105H0V1L9 1.00041C14 1.00041 16.5 2.5 18.5 6.00041L43.5 55.5004L304 1.00041C304 1.00041 325 -1.99913 344 14.0004C360.37 27.7855 361 51.0004 361 51.0004V80.0004C312.5 133.5 292.028 152.374 251 201.5C208.867 251.95 195 269 148.5 335H360.5V438Z" fill="#234997"/>
</svg>
