<svg width="200" height="200" viewBox="0 0 200 200" fill="none" xmlns="http://www.w3.org/2000/svg">
  <defs>
    <linearGradient id="grad1" x1="0%" y1="0%" x2="100%" y2="100%">
      <stop offset="0%" style="stop-color:#667eea;stop-opacity:1" />
      <stop offset="100%" style="stop-color:#764ba2;stop-opacity:1" />
    </linearGradient>
  </defs>
  <rect width="200" height="200" rx="20" fill="url(#grad1)"/>
  <g transform="translate(50, 50)">
    <!-- Airplane icon -->
    <path d="M20 30 L80 30 L85 35 L80 40 L20 40 Z" fill="white" opacity="0.9"/>
    <path d="M25 25 L75 25 L80 30 L75 35 L25 35 Z" fill="white" opacity="0.7"/>
    <circle cx="30" cy="32.5" r="3" fill="white" opacity="0.8"/>
    <circle cx="70" cy="32.5" r="3" fill="white" opacity="0.8"/>
    
    <!-- Hotel icon -->
    <rect x="20" y="50" width="60" height="40" fill="white" opacity="0.9"/>
    <rect x="25" y="55" width="10" height="10" fill="url(#grad1)" opacity="0.3"/>
    <rect x="40" y="55" width="10" height="10" fill="url(#grad1)" opacity="0.3"/>
    <rect x="55" y="55" width="10" height="10" fill="url(#grad1)" opacity="0.3"/>
    <rect x="25" y="70" width="10" height="10" fill="url(#grad1)" opacity="0.3"/>
    <rect x="40" y="70" width="10" height="10" fill="url(#grad1)" opacity="0.3"/>
    <rect x="55" y="70" width="10" height="10" fill="url(#grad1)" opacity="0.3"/>
    
    <!-- Car icon -->
    <rect x="20" y="100" width="60" height="25" rx="5" fill="white" opacity="0.9"/>
    <circle cx="35" cy="120" r="5" fill="url(#grad1)" opacity="0.3"/>
    <circle cx="65" cy="120" r="5" fill="url(#grad1)" opacity="0.3"/>
  </g>
</svg>
