<svg width="200" height="200" viewBox="0 0 200 200" fill="none" xmlns="http://www.w3.org/2000/svg">
  <defs>
    <linearGradient id="grad3" x1="0%" y1="0%" x2="100%" y2="100%">
      <stop offset="0%" style="stop-color:#f093fb;stop-opacity:1" />
      <stop offset="100%" style="stop-color:#f5576c;stop-opacity:1" />
    </linearGradient>
  </defs>
  <rect width="200" height="200" rx="20" fill="url(#grad3)"/>
  <g transform="translate(50, 50)">
    <!-- Document icon -->
    <rect x="20" y="20" width="60" height="80" rx="5" fill="white" opacity="0.9"/>
    <rect x="25" y="25" width="50" height="6" rx="2" fill="url(#grad3)" opacity="0.3"/>
    <rect x="25" y="35" width="40" height="4" rx="2" fill="url(#grad3)" opacity="0.3"/>
    <rect x="25" y="43" width="45" height="4" rx="2" fill="url(#grad3)" opacity="0.3"/>
    <rect x="25" y="51" width="35" height="4" rx="2" fill="url(#grad3)" opacity="0.3"/>
    <rect x="25" y="59" width="50" height="4" rx="2" fill="url(#grad3)" opacity="0.3"/>
    <rect x="25" y="67" width="30" height="4" rx="2" fill="url(#grad3)" opacity="0.3"/>
    <rect x="25" y="75" width="40" height="4" rx="2" fill="url(#grad3)" opacity="0.3"/>
    
    <!-- Checkmark -->
    <circle cx="70" cy="30" r="8" fill="url(#grad3)" opacity="0.8"/>
    <path d="M66 30 L69 33 L74 28" stroke="white" stroke-width="2" fill="none" stroke-linecap="round" stroke-linejoin="round"/>
  </g>
</svg>
